<svg width="50" height="50" viewBox="0 0 512 512" style="color:#EAE8E1" xmlns="http://www.w3.org/2000/svg" class="h-full w-full"><rect width="462" height="462" x="25" y="25" rx="256" fill="#827C6A" stroke="transparent" stroke-width="50" stroke-opacity="100%" paint-order="stroke"></rect><svg width="350px" height="350px" viewBox="0 0 256 256" fill="#EAE8E1" x="81" y="81" role="img" style="display:inline-block;vertical-align:middle" xmlns="http://www.w3.org/2000/svg"><g fill="#EAE8E1"><path fill="currentColor" d="M208 24h-40a8 8 0 0 0 0 16h20.69l-25.15 25.15A64 64 0 1 0 112 175.48V192H88a8 8 0 0 0 0 16h24v24a8 8 0 0 0 16 0v-24h24a8 8 0 0 0 0-16h-24v-16.52a63.92 63.92 0 0 0 45.84-98L200 51.31V72a8 8 0 0 0 16 0V32a8 8 0 0 0-8-8Zm-88 136a48 48 0 1 1 48-48a48.05 48.05 0 0 1-48 48Z"/></g></svg></svg>