<svg width="50" height="50" viewBox="0 0 512 512" style="color:#EAE8E1" xmlns="http://www.w3.org/2000/svg" class="h-full w-full"><rect width="462" height="462" x="25" y="25" rx="256" fill="#827C6A" stroke="transparent" stroke-width="50" stroke-opacity="100%" paint-order="stroke"></rect><svg width="350px" height="350px" viewBox="0 0 24 24" fill="#EAE8E1" x="81" y="81" role="img" style="display:inline-block;vertical-align:middle" xmlns="http://www.w3.org/2000/svg"><g fill="#EAE8E1"><path fill="currentColor" d="M12 1a2 2 0 0 0-2 2c0 1.11.89 2 2 2c1.11 0 2-.89 2-2a2 2 0 0 0-2-2m-2 5c-.27 0-.5.11-.69.28H9.3L4 11.59L5.42 13L9 9.41V22h2v-7h2v7h2V9.41L18.58 13L20 11.59l-5.3-5.31c-.2-.17-.43-.28-.7-.28"/></g></svg></svg>